<?xml version="1.0" encoding="utf-8"?>
<!-- Generator: Adobe Illustrator 22.0.0, SVG Export Plug-In . SVG Version: 6.00 Build 0)  -->
<svg version="1.1" id="Layer_1" xmlns="http://www.w3.org/2000/svg" xmlns:xlink="http://www.w3.org/1999/xlink" x="0px" y="0px"
	 viewBox="0 0 1000 1000" style="enable-background:new 0 0 1000 1000;" xml:space="preserve">
<style type="text/css">
	.st0{fill:#E84B87;}
	.st1{fill:#ED6A9C;}
	.st2{fill:#EF7CA8;}
	.st3{fill:#EE72A2;}
	.st4{fill:#EE75A4;}
	.st5{fill:#F5B3CC;}
	.st6{fill:#EF7EAA;}
	.st7{fill:#FEFEFE;}
</style>
<g>
	<path class="st0" d="M1000.9,170c0,220.6,0,441.2,0,661.8c-0.9,1.5-0.2,3.2-0.5,4.7c0,1.4,0,2.8,0,4.2c0.5,28.1-9,53.4-23.3,76.9
		c-20.4,33.4-49.1,57.5-85.3,72.6c-15.9,6.6-32.4,10.3-49.7,10.3c-0.7,0-1.5-0.1-2.1,0.5c-0.9,0-1.8,0-2.7,0c-2.1-0.7-4.2-0.7-6.4,0
		c-220,0-440,0-660,0c-2.4-0.7-4.8-0.7-7.3,0c-0.9,0-1.8,0-2.7,0c-4.7-1-9.5-1-14.3-1.3c-15-1-28.9-6-42.4-12
		c-23.2-10.2-43.2-25-60.1-43.8c-14.7-16.4-25.8-35-33.9-55.5c-5.6-14.3-8.5-29.1-8.9-44.5c0-0.7,0.1-1.5-0.5-2.1c0-1.8,0-3.6,0-5.5
		c0.7-1.8,0.7-3.6,0-5.5c0-220,0-440,0-660c0.7-1.8,0.7-3.6,0-5.5c0-1.8,0-3.6,0-5.5c1.1-4,0.8-8,1.1-12.1
		c1.9-24,11.3-45.3,23.7-65.3c20.4-32.9,49-56.4,84.7-71.2c15.2-6.3,31-9.8,47.4-10.1c0.7,0,1.5,0.1,2.1-0.5c1.8,0,3.6,0,5.5,0
		c2.7,0.7,5.5,0.7,8.2,0c219.1,0,438.2,0,657.3,0c1.8,0.7,3.6,0.7,5.5,0c1.5,0,3,0,4.5,0c4.6,0.9,9.2,0.9,13.9,1.2
		c14.5,1,28,5.6,41.2,11.3C920,23.8,940.9,39,958.3,58.6c18.1,20.5,30.9,43.9,38.4,70.3c3,10.6,3.3,21.3,3.8,32.1c0,1.4,0,2.8,0,4.2
		C1000.7,166.8,1000,168.5,1000.9,170z"/>
	<path class="st1" d="M173.6,0.9c-2.7,1.3-5.5,1.5-8.2,0C168.2,0.9,170.9,0.9,173.6,0.9z"/>
	<path class="st2" d="M163.6,1000.9c2.4-1.6,4.8-1.1,7.3,0C168.5,1000.9,166.1,1000.9,163.6,1000.9z"/>
	<path class="st2" d="M830.9,1000.9c2.1-1,4.2-1.5,6.4,0C835.2,1000.9,833,1000.9,830.9,1000.9z"/>
	<path class="st3" d="M836.4,0.9c-1.8,1.4-3.6,1.1-5.5,0C832.7,0.9,834.5,0.9,836.4,0.9z"/>
	<path class="st4" d="M0.9,165.5c1.4,1.8,1,3.6,0,5.5C0.9,169.1,0.9,167.3,0.9,165.5z"/>
	<path class="st4" d="M0.9,830.9c1,1.8,1.4,3.6,0,5.5C0.9,834.5,0.9,832.7,0.9,830.9z"/>
	<path class="st5" d="M1000.1,160.8c0.3,0,0.5,0,0.8,0.1c0,1.5,0,3,0,4.5c-0.4,0.6-0.6,0.6-0.8-0.1
		C1000.2,163.8,1000.1,162.3,1000.1,160.8z"/>
	<path class="st6" d="M1000.2,165.3c0.3,0,0.5,0,0.8,0.1c0,1.5,0,3,0,4.5C999.9,168.6,999.9,167,1000.2,165.3z"/>
	<path class="st6" d="M1000.1,836.5c-0.2-1.6-0.2-3.2,0.8-4.7c0,1.5,0,3,0,4.5C1000.7,837,1000.5,837,1000.1,836.5z"/>
	<path class="st5" d="M1000.1,836.5c0.3,0,0.5,0,0.8-0.1c0,1.5,0,3,0,4.5l-0.4,0.1c0,0-0.4,0-0.4,0
		C1000.1,839.5,1000.1,838,1000.1,836.5z"/>
	<path class="st7" d="M827.8,606c9.1,13.3,16.1,26.4,21.8,40.1c11.2,27.2,18.8,55.5,21,84.7c2,25.6-0.7,51.1-5.6,76.4
		c-4.4,22.4-11.3,44-22.7,63.9c-2.9,5-6,9.8-9.7,14.3c-0.9,1.1-1.5,2.7-3.2,2.8c-1-0.4-0.6-0.9-0.4-1.5
		c14.9-47.2,23.6-95.6,24.1-145.1c0.3-25.7-5.3-50.8-13.2-75.3c-8.2-25.2-19.5-48.9-36.3-69.7c-4.3-5.3-7.8-11.2-10-17.7
		c-0.8-2.5-1.8-5.2,0.7-7.1c2.6-2.1,4.7-0.1,6.8,1.5c16,11.5,33.3,18.5,53.5,16c15.2-1.9,28.2-8.6,39.7-18.6c0.5-0.5,1.2-1,0.9-1.9
		c-0.6-0.7-1.4-0.5-2-0.4c-20.6,3.7-36.8-4.7-50.3-19.1c-15.4-16.4-25-35.9-29.9-57.8c-6.1-26.9-7.1-54-3.9-81.3
		c2.8-23.4,1.8-46.9,0.1-70.3c-3.2-43.4-16.1-84-37.2-121.9c-15.7-28.2-36.1-52.5-64.1-69.3c-36.8-22.1-76.3-26.6-117.8-16.2
		c-37.4,9.3-70.9,26.8-102.1,49.1c-22.7,16.2-45.9,31.6-69.8,46c-9.4,5.6-17.3,11.5-21.1,21.9c-9.5,26.2,11.6,51.2,39,46.3
		c0.6-0.1,1.2-0.2,1.8-0.3c4.1-0.3,5.3,1.3,3.6,4.9c-5,10.5-8,21.5-7.8,33.3c0.2,10.8,3.3,20.3,11.3,27.8c9,8.4,13.7,18.7,14.7,30.8
		c0.6,7.3-1.5,14.4-2.7,21.5c-1.9,11.5-3.2,23.1-6,34.4c-2.4,9.7,4.6,17,15.3,15.9c7.3-0.7,12.2,2.4,16.2,7.8
		c3.1,4.2,4.8,9,6.6,13.9c9,24.8,25.7,41.3,51.4,48.2c18.3,4.9,36,2.6,53.1-5.3c19.2-9,35.8-21.4,50.4-36.7c0.9-1,1.9-2,2.9-2.8
		c1.9-1.4,3.8-1.9,5.6,0.1c2,2.2,0.1,3.5-1.3,4.9c-8.7,8.5-18.1,16.1-27.4,23.8c-5.4,4.4-10.7,8.9-16.3,13.1c-2.2,1.7-2.9,3.2-2.1,6
		c6.1,21.7,12.1,43.4,18.1,65.2c4.5,16.3-1.6,27.4-17.9,32.5c-15.2,4.7-29.9,10.8-44.1,18c-62.4,31.9-106.5,79.9-129.2,146.8
		c-1.8,5.3-3.3,10.7-4.6,16.1c-1.3,5.2-2.3,10.6-3.7,17.2c-3-17-1.2-32.4,2.8-47.6c1.2-4.7,2.8-9.3,4.2-13.9
		c0.4-1.2,1.5-2.2-0.8-3.1c-27.6-10.3-55.2-20.8-82.8-31.2c-3.5-1.3-7.1-2.7-10.6-4.1c-10.5-4.2-15.2-12.6-12.8-23.5
		c0.7-3,0.2-4.8-2.1-6.6c-5.5-4.5-10.2-9.8-16.6-13.3c-4.6-2.5-4.6-6.4-0.7-10c2.6-2.4,5.7-3.9,8.9-5.3c16.5-6.8,32-15.1,45.4-27.2
		c22.8-20.6,26.2-41.5,6.9-69.1c-6.3-9-8.6-18.1-7-28.6c0.9-6.5,2.5-12.8,5.3-18.7c16.3-34,5.5-69.7-23.7-94
		c-3.2-2.7-6.6-5.3-10-8.1c2.4-1.8,4.6-3.3,6.7-5c3-2.3,5.7-5,7.5-8.4c0.9-1.7,2.5-3.7,1.5-5.5c-1.1-2.1-3.2,0-4.9,0.1
		c-14.5,1.5-27.6-3.6-41.1-7.8c-46.3-14.4-89.7-8.9-128.2,21.5c-25,19.7-37,47.1-40.9,78.1c-6.8,54.8,13.2,98.5,56.2,132
		c13.8,10.8,29.2,19.6,44.1,28.8c1.2,0.7,2.4,1.4,3.5,2.2c6.3,4.8,5.9,10.9-1,14.8c-3,1.7-6.3,2.1-9.5,2.9c-5.4,1.3-10.9,2.7-16,5.1
		c-3.1,1.4-4.9,3.2-4.7,7.2c0.4,11.4-4.4,19.8-14.6,25.7c-26.2,15.3-47.2,35.9-61.8,62.6c-7.6,13.9-10.8,29.5-14.3,44.8
		c-3.9,17.2-6.2,34.6-5.3,52.3c0.2,4-2.7,4.7-5.2,5.8c-3.5,1.6-6.9,1.2-9.4-2c-2.1-2.7-3.2-5.9-3.1-9.3
		c2.2-68.5,27.5-124.6,87.5-161.9c1-0.6,2-1.4,3.1-1.8c7.9-3,11.7-7.6,10.1-16.9c-1.3-7.6,4.3-13.5,13.3-16c5.4-1.5,10.4-3.8,16-6.5
		c-1.9-1-3.2-1.8-4.6-2.5c-21.2-10.7-40.7-24-57.6-40.8c-18.7-18.6-30.9-40.4-35.4-66.6c-4.9-28.6-6.8-57.1,0.2-85.7
		c5.9-24.1,18.3-44,38.8-58.4c29.7-20.9,62-34.1,99-33.2c15.6,0.4,30.6,4,44.9,10.3c6.8,3,13.9,5.2,21.3,6.1
		c12,1.4,23.3,0.1,32.7-8.6c3.7,10.5-1.7,25.5-11.8,32.6c-3.3,2.3-3.2,3.3-0.3,5.9c16.1,15,28.8,32.3,33.9,54.3
		c3.7,16.2,2.3,31.8-5.4,46.8c-4.5,8.7-7,18-6,28c0.6,5.5,2.6,10.5,5.7,15.1c8.3,12,13.5,25,12.9,39.9c-0.5,12.6-5.7,23.2-14.7,31.8
		c-16.8,16-35.4,29.4-57.4,37.6c-0.5,0.2-1,0.5-1.1,0.6c5.3,5.6,10.4,11.3,15.9,16.7c4.3,4.3,6.6,9,4.2,15.1c-1.1,2.8,1.4,2.6,2.6,3
		c15.1,6.1,30.3,12.2,45.5,18.2c16.4,6.6,32.9,13.1,49.3,19.7c2.3,0.9,3.5,1.2,4.8-1.6c20.5-44.6,54.2-77.2,95-103.1
		c21.8-13.8,44.9-25,69.6-33c6.6-2.1,8.3-5.3,6.3-12.1c-5.8-20.2-11.7-40.4-17.6-60.6c-2-6.7-2-6.6-8.5-4.7
		c-33.1,9.3-65.5,0.7-88.4-30.2c-5.5-7.4-10-15.4-13.2-24.2c-3.5-9.6-9.4-16-20.9-16.5c-12.7-0.6-19.1-8.9-17.3-21.6
		c1.9-13.8,4.2-27.5,6.8-41.2c2.3-12.3-0.6-23.3-9-31.9c-14.6-14.9-16.9-32.8-15.4-52.1c0.6-7.2,2.1-14.3,3.8-21.7
		c-5.2-0.4-10.2,0.3-15.1-1c-30.7-7.8-42.1-44.9-20.7-68.1c3.8-4.1,8.1-7.8,12.8-10.8c30.6-19.7,60.7-40,89.6-62.1
		c28.6-21.9,60.3-38.3,95.9-45.8c43.8-9.3,85-3.3,123.5,20.6c51.8,32.1,83.5,78.9,100.4,136.5c11.3,38.5,16.7,77.8,16.1,117.9
		c-0.1,9.3-3.3,18.1-4.4,27.3c-3.2,26.6-2.6,53,5.2,78.8c5.7,18.7,15.7,35.2,31.2,47.6c13.5,10.9,28.4,13,44.1,4.7
		c2.1-1.1,3.1-1.1,3.8,1.4c2.1,7.4,2.4,14.4-1.4,21.5c-12.1,22.5-31.3,33.8-56.3,35.9C845.2,607.9,837,607.5,827.8,606z"/>
</g>
</svg>
